<svg xmlns="http://www.w3.org/2000/svg" xmlns:xlink="http://www.w3.org/1999/xlink" version="1.1" height="125.68000221252441" width="165.239990234375" viewBox="0 0 165.239990234375 125.68000221252441"><g id="SvgjsG1171" rel="mainfill" name="main_text" xmlns:name="mainText_mainfill" fill="#000000" transform="translate(15.78000259399414,48.39999961853028)"><path d="M4.8 19.6 q1.08 0 1.86 0.78 t0.78 1.86 q0 1.12 -0.8 1.88 t-1.84 0.76 q-1.12 0 -1.88 -0.76 t-0.76 -1.88 t0.8 -1.88 t1.84 -0.76 z M6.6 29.04 l0 18.96 l-3.6 0 l0 -18.96 l3.6 0 z M21.84 28.56 q4.12 0 5.92 3.52 q0.92 -1.68 2.52 -2.6 t3.48 -0.92 q7.16 0 7.2 8.24 l0 11.2 l-3.6 0 l0 -10.76 q0 -2.8 -1 -4.06 t-3.08 -1.26 q-2.44 0 -3.64 1.48 t-1.2 4.08 l0 10.52 l-3.6 0 l0 -10.2 q0 -3.36 -0.96 -4.62 t-3.04 -1.26 q-2.24 0 -3.58 1.72 t-1.34 4.36 l0 10 l-3.6 0 l0 -18.96 l3.36 0 l0 2.96 l0.08 0 q0.6 -1.4 2.38 -2.42 t3.7 -1.02 z M52.36 19.68 l15.6 23.28 l0.08 0 l0 -23.28 l3.84 0 l0 28.32 l-4.88 0 l-15.76 -23.28 l-0.08 0 l0 23.28 l-3.84 0 l0 -28.32 l5.04 0 z M86.92 28.56 q4.36 0 6.78 2.74 t2.46 7.54 l0 1 l-15.2 0 q0 2.32 1.86 3.9 t4.54 1.62 q2.96 0 5.2 -2.84 l2.72 2.08 q-3.04 3.88 -8.4 3.88 q-4.36 0 -7.02 -2.78 t-2.74 -7.18 q0 -4.24 2.74 -7.06 t7.06 -2.9 z M92.32 36.96 q-0.08 -2.68 -1.52 -4.1 t-3.96 -1.42 q-1.68 0 -3.02 0.82 t-2.1 2.12 t-0.76 2.58 l11.36 0 z M103.6 29.04 l4.6 6.72 l4.52 -6.72 l4.36 0 l-6.48 8.84 l7.68 10.12 l-4.64 0 l-5.6 -7.96 l-5.6 7.96 l-4.44 0 l7.68 -10.12 l-6.72 -8.84 l4.64 0 z M126.24 23.72 l0 5.32 l5.16 0 l0 3.12 l-5.16 0 l0 9.12 q0 1.84 0.52 2.84 t2.2 1 q1.6 0 2.56 -0.56 l0 3.28 q-1.04 0.56 -3.28 0.64 q-2.16 0 -3.34 -0.66 t-1.72 -1.84 t-0.54 -3.7 l0 -10.12 l-4.16 0 l0 -3.12 l4.16 0 l0 -5.32 l3.6 0 z"></path></g><g id="SvgjsG1172" rel="mainfill" name="slogan_text" xmlns:name="sloganText_mainfill" fill="#000000" transform="translate(-1.4399998188018799,101.23999881744385)"><path d="M1.44 24.44 l0 -14.44 l1.48 0 l0 0.72 s1.52 -0.92 3 -0.92 c2.52 0 3.62 1.54 3.62 5.08 c0 3.92 -1.28 5.32 -4.36 5.32 c-0.94 0 -1.96 -0.16 -2.24 -0.22 l0 4.46 l-1.5 0 z M5.7 11.14 c-1.36 0 -2.76 0.8 -2.76 0.8 l0 6.74 c0.26 0.04 1.3 0.22 2.16 0.22 c2.2 0 2.92 -1.14 2.92 -4.02 c0 -2.74 -0.86 -3.74 -2.32 -3.74 z M18.22 10 l1.5 0 l0 10 l-1.5 0 l0 -0.7 s-1.5 0.9 -2.96 0.9 c-2.8 0 -3.38 -1.3 -3.38 -4.98 l0 -5.22 l1.5 0 l0 5.2 c0 2.76 0.24 3.66 2.1 3.66 c1.48 0 2.74 -0.74 2.74 -0.74 l0 -8.12 z M27.780000000000005 11.3 l-3.18 0 l0 4.78 c0 2.18 0.14 2.8 1.44 2.8 c0.56 0 1.78 -0.12 1.78 -0.12 l0.1 1.24 s-1.34 0.22 -2.04 0.22 c-2.06 0 -2.76 -0.78 -2.76 -3.66 l0 -5.26 l-1.42 0 l0 -1.3 l1.42 0 l0 -3.06 l1.48 0 l0 3.06 l3.18 0 l0 1.3 z M36.300000000000004 10.18 l-0.04 1.28 s-2.22 -0.32 -3.5 -0.32 c-1.24 0 -2.18 0.34 -2.18 1.52 c0 0.94 0.48 1.2 2.6 1.56 c2.5 0.42 3.44 0.92 3.44 2.86 c0 2.34 -1.48 3.12 -3.88 3.12 c-1.28 0 -3.52 -0.38 -3.52 -0.38 l0.08 -1.3 s2.28 0.34 3.3 0.34 c1.64 0 2.52 -0.36 2.52 -1.72 c0 -1.04 -0.52 -1.3 -2.7 -1.64 c-2.26 -0.36 -3.34 -0.78 -3.34 -2.78 c0 -2.2 1.78 -2.92 3.6 -2.92 c1.5 0 3.62 0.38 3.62 0.38 z  M42.38 10 l1.5 0 l2.5 8.7 l0.66 0 l2.52 -8.7 l1.5 0 l-4.16 14.44 l-1.5 0 l1.3 -4.44 l-1.48 0 z M56.82000000000001 9.8 c3.18 0 4.28 1.64 4.28 5.08 c0 3.64 -0.9 5.32 -4.28 5.32 c-3.36 0 -4.28 -1.68 -4.28 -5.32 c0 -3.44 1.12 -5.08 4.28 -5.08 z M56.82000000000001 18.9 c2.38 0 2.74 -1.18 2.74 -4.02 c0 -2.78 -0.6 -3.78 -2.74 -3.78 c-2.12 0 -2.74 1 -2.74 3.78 c0 2.84 0.38 4.02 2.74 4.02 z M69.78 10 l1.5 0 l0 10 l-1.5 0 l0 -0.7 s-1.5 0.9 -2.96 0.9 c-2.8 0 -3.38 -1.3 -3.38 -4.98 l0 -5.22 l1.5 0 l0 5.2 c0 2.76 0.24 3.66 2.1 3.66 c1.48 0 2.74 -0.74 2.74 -0.74 l0 -8.12 z  M80.06000000000002 20 l-1.5 0 l0 -10 l1.48 0 l0 0.7 s1.62 -0.9 3.1 -0.9 c2.76 0 3.38 1.36 3.38 4.92 l0 5.28 l-1.48 0 l0 -5.24 c0 -2.64 -0.3 -3.62 -2.16 -3.62 c-1.44 0 -2.82 0.74 -2.82 0.74 l0 8.12 z M93.00000000000001 18.88 c1.5 0 3.68 -0.18 3.68 -0.18 l0.04 1.18 s-2.28 0.32 -3.9 0.32 c-2.98 0 -3.96 -1.74 -3.96 -5.14 c0 -3.8 1.64 -5.26 4.18 -5.26 c2.66 0 4.02 1.4 4.02 4.68 l-0.08 1.14 l-6.6 0 c0 2.14 0.66 3.26 2.62 3.26 z M90.36000000000001 14.42 l5.2 0 c0 -2.48 -0.76 -3.36 -2.52 -3.36 c-1.7 0 -2.66 0.94 -2.68 3.36 z M98.4 10 l1.64 0 l2.44 3.92 l2.44 -3.92 l1.64 0 l-3.18 4.96 l3.16 5.04 l-1.64 0 l-2.42 -3.9 l-2.44 3.9 l-1.64 0 l3.14 -5 z M113.62000000000002 11.3 l-3.18 0 l0 4.78 c0 2.18 0.14 2.8 1.44 2.8 c0.56 0 1.78 -0.12 1.78 -0.12 l0.1 1.24 s-1.34 0.22 -2.04 0.22 c-2.06 0 -2.76 -0.78 -2.76 -3.66 l0 -5.26 l-1.42 0 l0 -1.3 l1.42 0 l0 -3.06 l1.48 0 l0 3.06 l3.18 0 l0 1.3 z  M119.86000000000001 20 l0 -10 l1.5 0 l0 10 l-1.5 0 z M119.86000000000001 7.74 l0 -1.74 l1.5 0 l0 1.74 l-1.5 0 z M125.74000000000001 20 l-1.5 0 l0 -10 l1.48 0 l0 0.7 s1.62 -0.9 3.1 -0.9 c2.76 0 3.38 1.36 3.38 4.92 l0 5.28 l-1.48 0 l0 -5.24 c0 -2.64 -0.3 -3.62 -2.16 -3.62 c-1.44 0 -2.82 0.74 -2.82 0.74 l0 8.12 z M135.10000000000002 20 l0 -14.36 l1.5 0 l0 14.36 l-1.5 0 z M139.60000000000002 20 l0 -10 l1.5 0 l0 10 l-1.5 0 z M139.60000000000002 7.74 l0 -1.74 l1.5 0 l0 1.74 l-1.5 0 z M145.48000000000002 20 l-1.5 0 l0 -10 l1.48 0 l0 0.7 s1.62 -0.9 3.1 -0.9 c2.76 0 3.38 1.36 3.38 4.92 l0 5.28 l-1.48 0 l0 -5.24 c0 -2.64 -0.3 -3.62 -2.16 -3.62 c-1.44 0 -2.82 0.74 -2.82 0.74 l0 8.12 z M158.42000000000002 18.88 c1.5 0 3.68 -0.18 3.68 -0.18 l0.04 1.18 s-2.28 0.32 -3.9 0.32 c-2.98 0 -3.96 -1.74 -3.96 -5.14 c0 -3.8 1.64 -5.26 4.18 -5.26 c2.66 0 4.02 1.4 4.02 4.68 l-0.08 1.14 l-6.6 0 c0 2.14 0.66 3.26 2.62 3.26 z M155.78000000000003 14.42 l5.2 0 c0 -2.48 -0.76 -3.36 -2.52 -3.36 c-1.7 0 -2.66 0.94 -2.68 3.36 z M165.04000000000002 20 l0 -2.24 l1.64 0 l0 2.24 l-1.64 0 z M165.16000000000003 15.440000000000001 l-0.1 -9.28 l1.58 0 l-0.1 9.28 l-1.38 0 z"></path></g><defs id="SvgjsDefs1170"></defs><g id="SvgjsG1173" rel="mainfill" name="symbol" xmlns:name="symbol_mainfill" fill="#000000" transform="translate(46.39978368798751,-9.010707463906686) scale(0.7095046419296587)"><path xmlns="http://www.w3.org/2000/svg" d="M40,41.1c7.9,0,14.2-6.4,14.2-14.2c0-7.9-6.4-14.2-14.2-14.2c-7.9,0-14.2,6.4-14.2,14.2C25.8,34.7,32.2,41.1,40,41.1z   M40,16.6c5.6,0,10.2,4.6,10.2,10.2S45.7,37.1,40,37.1c-5.6,0-10.2-4.6-10.2-10.2S34.4,16.6,40,16.6z"></path><path xmlns="http://www.w3.org/2000/svg" d="M47,44.9H33.1c-10.3,0-18.7,8.4-18.7,18.7v23.8h51.3V63.6C65.7,53.3,57.3,44.9,47,44.9z M61.7,83.4H54V68.9h-4v14.5H30V68.9  h-4v14.5h-7.6V63.6c0-8.1,6.6-14.7,14.7-14.7H47c8.1,0,14.7,6.6,14.7,14.7V83.4z"></path><polygon xmlns="http://www.w3.org/2000/svg" points="87.7,50 76.4,38.7 73.6,41.5 82.1,50 73.6,58.5 76.4,61.3 87.7,50 87.7,50 "></polygon></g></svg>